<?xml version="1.0" encoding="utf-8"?>
<!-- Generator: Adobe Illustrator 23.0.1, SVG Export Plug-In . SVG Version: 6.00 Build 0)  -->
<svg version="1.1" id="Layer_1" xmlns="http://www.w3.org/2000/svg" xmlns:xlink="http://www.w3.org/1999/xlink" x="0px" y="0px"
	 viewBox="0 0 200 68.04" style="enable-background:new 0 0 200 68.04;" xml:space="preserve">
<style type="text/css">
	.st0{fill:#107BB6;}
	.st1{font-family:'Cunia';}
	.st2{font-size:17.5612px;}
	.st3{font-size:85.512px;}
	.st4{font-size:83.1596px;}
    
</style>
<path class="st0" d="M196.92,31.76c-0.03-0.16-0.32-0.36-0.32-0.36l-0.32-0.39c0,0-0.52-0.61-0.61-0.81
	c-0.1-0.19-0.55-0.94-0.97-1.49c-0.42-0.55-1.94-2.01-2.2-2.14c-0.26-0.13-1.62-1.13-1.98-1.39c-0.36-0.26-1.3-0.94-1.75-1.36
	c-0.45-0.42-2.17-1.75-2.46-1.91c-0.29-0.16-2.01-1.82-2.4-1.82c-0.39,0-0.75-0.26-0.75-0.26s-0.13-0.42-0.61-0.65
	c-0.49-0.23-1.68-0.42-2.14-0.45c-0.45-0.03-0.61-0.32-0.78-0.45c-0.16-0.13-0.78-0.13-1.91-0.23c-1.13-0.1-1.01-0.06-1.78-0.58
	c-0.78-0.52-0.78-1.62-0.78-1.85c0-0.23,0.03-0.65,0.16-0.81c0.13-0.16,1.46-1.23,1.46-1.23s0.75-0.26,0.97-1.07
	c0.23-0.81,0.1-1.88,0-2.14c-0.1-0.26-0.23-1.2-0.55-1.72c-0.32-0.52-1.26-1.39-1.75-1.72c-0.49-0.32-1.91-0.29-2.2-0.23
	s-0.84-0.06-0.84-0.06s-1.01-0.42-1.1-0.45c-0.1-0.03-1.13-0.61-1.71-0.81c-0.58-0.19-1.3-0.22-1.53-0.13
	c-0.23,0.1-0.2,0.49-0.29,1.04c-0.1,0.55-0.29,0.78-0.61,1.03c-0.32,0.26-1.04,0.68-1.39,0.81c-0.36,0.13-0.84,0.58-1.72,1.59
	s-1.36,1.59-1.39,1.78c-0.03,0.2,0.32,1.75,0.48,2.17c0.16,0.42,0.97,1.52,1.2,1.85c0.23,0.32,1.91,1.2,2.33,1.36
	c0.42,0.16,0.58,0.55,0.58,0.55l0.2,0.42l0.55,0.75l0.91,0.52c0,0,0.65,0.65,0.68,0.74c0.03,0.1-0.16,0.49-0.36,0.65
	c-0.19,0.16-0.55,0.45-1.23,0.74c-0.68,0.29-1.82,1.2-2.1,1.59c-0.26,0.36-0.9,1.75-1.25,3.16c-0.03,0.11-0.05,0.23-0.08,0.34
	l-1.12,6.06c0,0-0.11,1.02-0.18,1.27c-0.07,0.24-0.78,2.04-0.89,2.4c-0.11,0.36-0.69,1.67-0.69,1.67s-0.09,0.11-0.2,0.16
	c-0.11,0.04-1.41,0.49-1.72,0.69c-0.31,0.2-1.25,1.03-1.69,1.52c-0.29,0.32-1.09,0.29-1.41,0.29c-0.32,0-0.41,0-0.41,0v-0.11
	l-0.09-0.47c0,0-0.27-0.31-0.33-0.42c-0.07-0.11-0.22-0.4-0.29-0.49c-0.07-0.09-0.31-0.38-0.49-0.54c-0.18-0.16-0.51-0.02-0.67,0
	c-0.16,0.02-0.36,0.56-0.47,0.69c-0.11,0.13-0.58,0.2-0.74,0.24c-0.16,0.04-0.67,0.22-0.91,0.25c-0.24,0.02-0.8,0.09-1.09,0.29
	c-0.29,0.2-0.58,0.49-0.56,0.69c0.02,0.2,0.09,0.8,0.09,0.8s-0.24,0.42-0.29,0.6c-0.04,0.18,0,0.65,0,0.65s0.33,0.24,0.47,0.36
	c0.13,0.11,0.2,0.4,0.22,0.67c0.02,0.27,0.29,0.44,0.38,0.49c0.09,0.04,0.31,0.22,0.31,0.22s0.2,0.29,0.22,0.36
	c0.02,0.07,0.42,0.47,0.42,0.47s0.6,0.16,0.82,0.27c0.22,0.11,0.69,0.07,0.91,0c0.22-0.07,0.8-0.29,0.87-0.4
	c0.07-0.11,0.74-0.62,0.74-0.62l0.67-0.24c0,0,0.62-0.07,0.8-0.11c0.18-0.04,1.03-0.11,1.36-0.18c0.33-0.07,1.27-0.09,1.74-0.13
	c0.47-0.04,1.94-0.28,2.32-0.41c0.38-0.14,1.31-0.65,1.4-0.78c0.09-0.13,0.9-0.67,1.06-1.11c0.16-0.42,0.86-1.58,0.86-1.58
	l1.29-2.18c0,0.45-0.03,1.01-0.39,1.81c-0.36,0.81-0.52,1.56-0.52,2.53v1.04c0.26-0.13-0.55,5.77-0.49,5.9
	c0.07,0.13-0.29,1.13-0.39,1.56c-0.1,0.42-0.55,3.17-0.52,5.8c0.03,2.62-0.23,3.69-0.36,4.08c-0.13,0.39-0.32,0.36-0.26,0.16
	c0.06-0.2,0.03-0.55,0-0.68c-0.03-0.13-0.2-0.55-0.2-0.55l-0.36,0.03c0,0-0.32,1.36-0.52,1.72c-0.2,0.36-0.26,0.26-0.26,0.26
	s-0.2-0.81-0.26-1.07c-0.06-0.26-0.29-0.36-0.29-0.36v2.53l-0.74-0.88c0,0-0.75-1-1.13-1.94c-0.39-0.94-0.49-2.91-0.49-2.91
	s-0.58,1.3-0.65,1.88c-0.06,0.58,0.16,2.17,0.33,2.56c0.16,0.39,0.78,1.52,0.81,2.04c0.03,0.52-0.61,0.36-0.61,0.36
	s-0.23-0.55-0.36-0.91c-0.13-0.36-0.58-1.13-0.58-1.13l-0.07,1.13c0,0,0.26,0.58-0.23,0.29c-0.49-0.29-1.67-1.62-1.67-1.62
	s-0.01,0.52,0.15,0.81c0.16,0.28,1.17,1.42,1.23,1.49c-0.06-0.02-1.01-0.46-1.36-0.65c-0.35-0.19-1.33-1.56-1.39-1.64
	c0.01,0.07,0.2,0.9,0.42,1.48c0.23,0.61,1.39,1.62,1.39,1.62s0.13,0.16,0,0.36c-0.13,0.2-1.23,0.68-1.23,0.68h34.86
	c0,0-0.13-0.36-0.36-1c-0.23-0.65-0.42-2.27-0.36-2.82c0.07-0.55-0.48-1.1-0.48-1.1s0.1,1.29,0.03,1.78
	c-0.07,0.49-0.45,0.65-0.45,0.65v-1.1c0,0-0.06,0.26-0.16,0.71c-0.1,0.45-0.39,0.2-0.39,0.2l-0.03-1.68l-0.06,0.39l-0.23,0.32
	c0,0-0.23-0.36-0.26-0.45c-0.03-0.1-0.19-1.08-0.19-1.08l-0.17-0.83c0,0-0.26,0.78-0.29,0.97c-0.03,0.2-0.03,1.17-0.07,1.43
	c-0.03,0.26-0.29-0.03-0.29-0.03l-0.22-2.4c0,0-0.03,0.58-0.23,0.84c-0.2,0.26-0.42,0.68-0.61,0.81c-0.2,0.13-0.36,0.52-0.49,0.52
	c-0.13,0-0.23-0.22-0.26-0.36c-0.03-0.13-0.45-0.71-0.45-0.87s-0.1-1.04-0.1-1.04s-0.36-0.06-0.42-0.16
	c-0.06-0.1-0.16-0.61-0.16-0.84s-0.36-1.62-0.36-1.62s0.1-1.2,0.13-1.52c0.03-0.32,0.13-1.84,0.13-2.72s0.07-3.53,0.07-3.53
	l0.1-1.07c0,0,0.2-0.29,0.29-0.36c0.1-0.06,0.58-0.1,0.75-0.26c0.16-0.16,0.74-1.2,1.1-2.04c0.36-0.84,0.58-1.62,0.58-1.62
	s1.2-0.84,1.91-1.49c0.71-0.65,2.49-1.94,3.08-2.49c0.58-0.55,2.04-2.53,2.49-3.4c0.45-0.88,1.46-2.56,1.59-2.69
	c0.13-0.13,0.45-0.32,0.61-0.55C197.08,32.67,196.95,31.92,196.92,31.76z M189.5,33.12c-0.1,0.17-0.61,0.78-0.73,1.26
	c-0.12,0.49-0.34,1.31-0.34,1.31s-0.17,0.63-0.22,0.8c-0.05,0.17-0.32,0.58-0.34,0.66c-0.02,0.07-0.46,0.22-0.46,0.22s0.05-0.24,0-1
	c-0.05-0.75-0.2-1.14-0.22-1.26c-0.02-0.12-0.07-0.44-0.07-0.56s-0.1-0.12,0-0.39c0.1-0.27,0.38-1.12,0.31-1.65
	c-0.07-0.54,0.01-1.68,0.01-1.68s0.53,0.39,0.89,0.63c0.37,0.24,0.9,0.63,1.09,0.75c0.2,0.12,0.27,0.07,0.34,0.24
	C189.83,32.63,189.59,32.95,189.5,33.12z"/>
<path class="st0" d="M164.65,26.01c-0.03,0.11-0.05,0.23-0.08,0.34l0.05-0.4L164.65,26.01z"/>
<path class="st0" d="M159.24,63.64l-2.23-9.53l0.36-0.12l-0.15-0.86l-0.24-0.63l-1.26-5.59c0,0-0.05-0.31-0.17-0.99
	c-0.12-0.68-0.05-1.2-0.01-1.32c0.03-0.11-0.47-0.67-0.67-1.55c-0.21-0.88-0.71-2.89-0.8-3.38s-0.08-0.95-0.02-1.21
	c0.06-0.25,0.15-0.48,0.15-0.48s-0.45-0.33-0.53-0.69c-0.09-0.36-0.28-1.64-0.28-1.64s0.02-0.46,0.28-0.77
	c0.26-0.31,0.49-0.57,0.45-0.75c-0.03-0.18-1.13-0.5-1.58-0.43c-0.44,0.08-1.23,0.4-1.31,0.6c-0.08,0.2-0.25,0.63-0.14,0.83
	c0.11,0.2,0.03,0.29,0.03,0.29s-1.39,0.27-2,1.42c-0.61,1.15-1.31,3.16-1.32,4.07c0,0.91-0.27,1.42-0.43,2.28
	c-0.16,0.86-0.27,3.84-0.15,4.33c0.11,0.49,0.56,1.68,0.77,1.96s0.36,0.23,0.7,0.31c0.34,0.08,1.5,0.41,1.64,0.44
	c0.14,0.03,0.39-0.09,0.64-0.35c0.25-0.26,0.62-1.56,0.6-2.12c-0.02-0.56-0.28-2.24-0.58-3.07c-0.3-0.83-1.27-2.98-1.45-3.73
	c-0.18-0.75-0.53-2.3-0.22-3.16c0.31-0.86,0.42-1.31,0.94-1.59c0.52-0.28,1.21-0.53,1.21-0.53s0.14-0.08,0.13,0.03
	c-0.01,0.11-0.24,0.34-0.24,0.34s-0.05,0.33-0.02,0.49c0.03,0.16,0.23,1.95,0.23,1.95l1.23,4.92c0,0,0.25,1.41,0.27,1.59
	c0.02,0.18-0.12,0.45-0.12,0.45s0.56,0.44,0.57,0.52c0.01,0.08,0.93,3.52,0.93,3.52l0.82,3.81l0.07,0.23l-0.06,0.28l0.17,0.51
	l0.32,0.16l2.4,10.73 M148.98,40.24c0.08,1.06,0.39,2.41,0.42,2.62c0.04,0.21,0.48,2.63,0.49,3.17c0.01,0.54-0.06,1.97-0.06,1.97
	l-0.22,0.31c0,0,0.01-1.99,0.02-2.37c0.02-0.38-0.11-1.86-0.19-2.17c-0.08-0.31-0.58-1.06-0.65-2.01c-0.07-0.96-0.04-2.79,0.12-3.3
	c0.15-0.51,0.55-1.47,0.55-1.47S148.9,39.18,148.98,40.24z"/>
<text transform="matrix(0 -1 1 0 143.8727 65.662)" class="st0 st1 st2">TOURS</text>
<g>
	<text transform="matrix(0.7726 0 0 1 41.8614 65.5966)" class="st0 st1 st3">p</text>
</g>
<text transform="matrix(0.7453 0 0 1 85.1754 64.6952)" class="st0 st1 st4">o</text>
<polygon class="st0" points="23.63,47.03 23.63,48.03 22.07,48.03 22.07,47.05 22.39,46.9 22.39,46.43 23.31,46.43 23.31,46.88 "/>
<path class="st0" d="M41.74,28.61c-0.09-4.08-0.69-7.63-1.79-10.66c-0.88-2.42-2.07-4.5-3.59-6.26c-1.85-2.14-4.04-3.7-6.55-4.68
	c-2.08-0.81-4.38-1.23-6.91-1.26c-0.08,0-0.15,0-0.22,0c-2.7,0-5.14,0.44-7.33,1.32c-2.46,0.99-4.6,2.53-6.42,4.62
	c-1.52,1.76-2.71,3.85-3.59,6.26c-1.1,3.04-1.7,6.59-1.79,10.66c-0.04,1.61-0.06,4.02-0.06,7.24c0,3.22,0.02,5.6,0.06,7.15
	c0.11,3.98,0.68,7.44,1.69,10.39c0.88,2.55,2.1,4.72,3.66,6.5c1.8,2.04,3.95,3.54,6.45,4.49c2.18,0.83,4.62,1.25,7.33,1.25
	c0.08,0,0.15,0,0.22,0c2.54-0.02,4.84-0.41,6.91-1.17c2.58-0.95,4.78-2.46,6.61-4.56c1.55-1.78,2.76-3.94,3.64-6.5
	c1.01-2.95,1.58-6.4,1.68-10.39c0.08-3.1,0.12-5.49,0.12-7.15C41.86,34.24,41.82,31.83,41.74,28.61z M22.82,16.68l0.08-0.82l0,0.08
	v0l0.06,0.72l0.61,0.05l-0.6,0.09l-0.07,1.02v0l0,0.09l-0.06-1.13l-0.6-0.06L22.82,16.68z M27.52,48.91c0,0,0.19,0.05,0.19,0.11
	c0,0.04,0.03,0.14,0.03,0.23v0c0,0.03,0,0.06-0.01,0.08c-0.04,0.09-0.18,0.22-0.18,0.22l0.03,0.61c0,0,0.22,0.2,0.26,0.32
	c0,0-0.21,0.24-0.47,0.6c-0.26,0.37-0.61,0.73-1.53,1.28c-0.86,0.52-2.45,0.8-2.93,0.85c-0.04,0-0.07,0.01-0.09,0.01
	c-0.34,0.01-1.01-0.11-1.93-0.31c-0.92-0.2-1.87-0.85-2.19-1.07c-0.32-0.22-0.74-0.76-0.74-0.76s-0.14-0.2-0.16-0.33
	c-0.02-0.13-0.08-0.36,0-0.42c0.07-0.06,0.24-0.18,0.24-0.18V49.6c0,0-0.2-0.18-0.2-0.25c0-0.07,0.15-0.4,0.2-0.44
	c0.05-0.04,0-0.4,0-0.4l-0.31-0.39l0.2-0.42h0.26l0.13-0.86c0,0-0.18-0.05-0.18-0.11c0-0.06,0.27-0.6,0.27-0.6h-0.18l-0.14-0.2
	l-0.2-0.79h0.29l-0.02-0.2h0.33v-0.47l-0.21-0.68v-0.29h0.11l-0.02-0.44l0.29-0.14l0.02-1.57l0.04-2.38l0-0.11l-0.63-4.49h0.24
	v-0.28h0.44v-0.53l0.33-0.15v-1.98l-0.06-0.89h0.15v-0.51l-0.22-0.8h0.29l-0.05-0.3l0.05-0.69l0.09-0.06v-0.39h0.18
	c0,0-0.01-0.03-0.01-0.06c-0.08-0.04-0.14-0.13-0.14-0.23c0-0.14,0.12-0.26,0.26-0.26c0.13,0,0.24,0.1,0.26,0.23l0.03-0.01
	c-0.01,0-0.04,0-0.05-0.09c-0.01-0.1-0.04-0.27-0.04-0.27s-0.1,0.04-0.15-0.21c-0.05-0.25,0.02-0.43,0.1-0.49
	c0.07-0.06,0.14-0.13,0.14-0.13s-0.1-0.13-0.1-0.24c0-0.11,0.1-0.16,0.1-0.16s0.1-0.14,0.1-0.18c0-0.04,0-0.95,0-0.95v-1.08
	l0.11-0.17c-0.11-0.07-0.18-0.19-0.18-0.33c0-0.14,0.08-0.26,0.19-0.33c0,0,0,0,0.01,0c0,0,0,0,0,0c-0.05-0.05-0.08-0.11-0.08-0.19
	c0-0.14,0.12-0.26,0.26-0.26c0.15,0,0.26,0.12,0.26,0.26c0,0.03,0,0.05-0.01,0.08c-0.01,0.04-0.04,0.08-0.07,0.11
	c0.02,0.01,0.03,0.02,0.05,0.03c0.08,0.06,0.14,0.16,0.15,0.26l0.29-0.31v-1.11l-0.15-0.11l0.01-0.65h0.09c0,0,0.01-0.7,0.05-0.78
	c0.04-0.08,0.22-0.26,0.22-0.26s0-0.4-0.04-0.43l0.05-0.01c-0.11-0.07-0.18-0.19-0.18-0.32c0-0.14,0.07-0.26,0.19-0.33
	c-0.04-0.05-0.07-0.11-0.07-0.18c0-0.14,0.12-0.26,0.26-0.26c0.14,0,0.26,0.12,0.26,0.26c0,0.07-0.03,0.13-0.07,0.18
	c0.11,0.07,0.19,0.19,0.19,0.33c0,0.06-0.01,0.11-0.03,0.16l0.03-0.01c0.03,0,0.54-0.02,0.54-0.02v-0.28l0.23,0
	c-0.14-0.09-0.23-0.25-0.23-0.43c0-0.29,0.23-0.53,0.52-0.53c0.02,0,0.04,0,0.06,0.01c0.26,0.03,0.46,0.25,0.46,0.52
	c0,0.13-0.05,0.25-0.13,0.34c-0.02,0.03-0.05,0.06-0.08,0.08c0,0,0,0,0,0l-0.1,0.01h0.27v0.35h0.1c0,0,0.04-0.03,0.16-0.05
	c0.12-0.02,0.22,0.13,0.22,0.13h0.03c-0.02-0.04-0.03-0.09-0.03-0.14c0-0.13,0.07-0.25,0.18-0.32c0,0,0.01,0,0.01-0.01l0.09,0.01
	c-0.02-0.01-0.04-0.02-0.05-0.03c-0.06-0.05-0.11-0.12-0.11-0.21c0-0.15,0.12-0.26,0.26-0.26c0.14,0,0.26,0.12,0.26,0.26
	c0,0.09-0.04,0.16-0.11,0.21c0.13,0.06,0.22,0.19,0.22,0.35c0,0.11-0.05,0.21-0.12,0.27c0,0,0,0,0,0c-0.03,0.05,0,0.19-0.01,0.21
	c-0.01,0.03,0.02,0.22,0.02,0.22s0.14,0.1,0.22,0.25c0.07,0.15,0.05,0.78,0.05,0.78l0.09,0.08v0.42l-0.09,0.35l-0.01,0.34
	c0,0,0.09,0.06,0.1,0.09c0.01,0.04-0.05,0.2-0.05,0.2l-0.08,0.16l-0.05,0.12l0.33,0.32c0.02-0.11,0.09-0.2,0.19-0.25c0,0,0,0,0.01,0
	l-0.01-0.01c-0.05-0.05-0.07-0.11-0.07-0.18c0-0.14,0.12-0.26,0.26-0.26c0.14,0,0.26,0.12,0.26,0.26c0,0.06-0.02,0.12-0.06,0.16
	c-0.01,0.01-0.01,0.02-0.02,0.03c0.01,0,0.02,0.01,0.02,0.01c0.11,0.07,0.18,0.19,0.18,0.32c0,0.13-0.06,0.24-0.16,0.31
	c0,0.03-0.01,0.11,0,0.14c0.01,0.03,0.09,0.1,0.09,0.1v0.87l0.05,0.12v1.02c0,0,0.07,0.04,0.07,0.09c0,0.06,0.04,0.12,0.04,0.12
	l0.13,0.13v0.17l-0.12,0.08l-0.01,0.11c0,0,0.25,0.16,0.26,0.25c0.01,0.09,0.03,0.23,0,0.29c-0.03,0.06-0.17,0.16-0.17,0.16v0.23
	l-0.07,0.1l-0.01,0.11l0.12,0.06c-0.03-0.04-0.06-0.1-0.06-0.16c0-0.14,0.12-0.26,0.26-0.26c0.15,0,0.26,0.12,0.26,0.26
	c0,0.1-0.06,0.2-0.15,0.24c0,0.01,0.01,0.02,0.01,0.02l0.13,0.17v0.37l0.05,0.16v0.85h0.24v0.47l-0.08,0.35h-0.11l0.01,0.56h0.18
	l-0.08,0.9h-0.09l0.08,1.94l0.28,0.14v0.5h0.44v0.28h0.25l-0.62,4.29l0.01,0.23l0.09,2.38l0.06,1.6l0.18,0.11l0.06,0.43l0.03,0.42
	l-0.21,0.55l0.03,0.47h0.34l0.05,0.23h0.23l-0.29,1h-0.2l-0.01,0.23l0.08,1.3h0.41l0.07,0.38c0,0-0.13,0.22-0.16,0.28
	c-0.03,0.05-0.23,0.24-0.23,0.24L27.52,48.91z"/>
<polygon class="st0" points="23.92,38.73 23.92,41.33 21.69,41.33 21.69,38.68 22.12,37.98 23.54,37.98 "/>
<path class="st0" d="M23.67,27.21c0,0.43-0.34,0.78-0.77,0.8c-0.01,0-0.02,0-0.04,0c-0.45,0-0.81-0.36-0.81-0.81
	s0.36-0.81,0.81-0.81c0.01,0,0.02,0,0.04,0C23.33,26.43,23.67,26.78,23.67,27.21z"/>
<rect x="22.2" y="49.25" class="st0" width="1.31" height="0.67"/>
</svg>
